<svg version="1.1" width="1000" height="1000" xmlns="http://www.w3.org/2000/svg">
  <radialGradient id="hydrogen" cx="-50%" cy="-50%" r="220%" fx="20%" fy="20%">
    <stop offset="0%" stop-color="#FFFFFF" />
    <stop offset="50%" stop-color="#050505" />
    <stop offset="100%" stop-color="#020202" />
  </radialGradient>
  <radialGradient id="carbon" cx="-50%" cy="-50%" r="220%" fx="20%" fy="20%">
    <stop offset="0%" stop-color="#808080" />
    <stop offset="50%" stop-color="#010101" />
    <stop offset="100%" stop-color="#000000" />
  </radialGradient>
  <radialGradient id="oxygen" cx="-50%" cy="-50%" r="220%" fx="20%" fy="20%">
    <stop offset="0%" stop-color="#FF0000" />
    <stop offset="50%" stop-color="#050000" />
    <stop offset="100%" stop-color="#020000" />
  </radialGradient>
  <circle cx="617.26" cy="623.12" r="25" fill="url(#hydrogen)" />
  <circle cx="609.16" cy="371.92" r="25" fill="url(#hydrogen)" />
  <circle cx="393.43" cy="579.69" r="25" fill="url(#hydrogen)" />
  <circle cx="388.19" cy="402.82" r="25" fill="url(#hydrogen)" />
  <linearGradient id="bond4" x1="645.09" y1="607.46" x2="645.8" y2="637.45" gradientUnits="userSpaceOnUse">
    <stop offset="0%" stop-color="#454545" />
    <stop offset="25%" stop-color="#606060" />
    <stop offset="50%" stop-color="#454545" />
    <stop offset="100%" stop-color="#252525" />
  </linearGradient>
  <linearGradient id="cap4" x1="645.09" y1="607.46" x2="645.8" y2="637.45" gradientUnits="userSpaceOnUse" gradientTransform="rotate(-88.64,625.06,622.93)">
    <stop offset="0%" stop-color="#454545" />
    <stop offset="25%" stop-color="#606060" />
    <stop offset="50%" stop-color="#454545" />
    <stop offset="100%" stop-color="#252525" />
  </linearGradient>
  <polygon points="645.09,607.46 645.8,637.45 625.41,637.93 624.7,607.94" fill="url(#bond4)" />
  <ellipse cx="625.06" cy="622.93" rx="15" ry="13.81" transform="rotate(88.64,625.06,622.93)" fill="url(#cap4)" />
  <linearGradient id="bond5" x1="366.72" y1="528.3" x2="425.31" y2="515.37" gradientUnits="userSpaceOnUse">
    <stop offset="0%" stop-color="#252525" />
    <stop offset="25%" stop-color="#404040" />
    <stop offset="50%" stop-color="#252525" />
    <stop offset="100%" stop-color="#050505" />
  </linearGradient>
  <linearGradient id="cap5" x1="366.72" y1="528.3" x2="425.31" y2="515.37" gradientUnits="userSpaceOnUse" gradientTransform="rotate(12.45,390.09,564.57)">
    <stop offset="0%" stop-color="#252525" />
    <stop offset="25%" stop-color="#404040" />
    <stop offset="50%" stop-color="#252525" />
    <stop offset="100%" stop-color="#050505" />
  </linearGradient>
  <polygon points="366.72,528.3 396.02,521.83 404.74,561.33 375.44,567.8" fill="url(#bond5)" />
  <ellipse cx="390.09" cy="564.57" rx="15" ry="9.49" transform="rotate(-12.45,390.09,564.57)" fill="url(#cap5)" />
  <linearGradient id="bond6" x1="634.99" y1="387.1" x2="635.4" y2="327.1" gradientUnits="userSpaceOnUse">
    <stop offset="0%" stop-color="#252525" />
    <stop offset="25%" stop-color="#404040" />
    <stop offset="50%" stop-color="#252525" />
    <stop offset="100%" stop-color="#050505" />
  </linearGradient>
  <linearGradient id="cap6" x1="634.99" y1="387.1" x2="635.4" y2="327.1" gradientUnits="userSpaceOnUse" gradientTransform="rotate(-90.39,616.33,371.97)">
    <stop offset="0%" stop-color="#252525" />
    <stop offset="25%" stop-color="#404040" />
    <stop offset="50%" stop-color="#252525" />
    <stop offset="100%" stop-color="#050505" />
  </linearGradient>
  <polygon points="635.2,357.1 634.99,387.1 616.22,386.97 616.43,356.97" fill="url(#bond6)" />
  <ellipse cx="616.33" cy="371.97" rx="15" ry="14" transform="rotate(90.39,616.33,371.97)" fill="url(#cap6)" />
  <linearGradient id="bond7" x1="364.74" y1="463.01" x2="394.45" y2="467.11" gradientUnits="userSpaceOnUse">
    <stop offset="0%" stop-color="#454545" />
    <stop offset="25%" stop-color="#606060" />
    <stop offset="50%" stop-color="#454545" />
    <stop offset="100%" stop-color="#252525" />
  </linearGradient>
  <linearGradient id="cap7" x1="364.74" y1="463.01" x2="394.45" y2="467.11" gradientUnits="userSpaceOnUse" gradientTransform="rotate(172.14,385.81,420.07)">
    <stop offset="0%" stop-color="#454545" />
    <stop offset="25%" stop-color="#606060" />
    <stop offset="50%" stop-color="#454545" />
    <stop offset="100%" stop-color="#252525" />
  </linearGradient>
  <polygon points="394.45,467.11 364.74,463.01 370.95,418.01 400.67,422.12" fill="url(#bond7)" />
  <ellipse cx="385.81" cy="420.07" rx="15" ry="7.39" transform="rotate(-172.14,385.81,420.07)" fill="url(#cap7)" />
  <circle cx="375.18" cy="497.03" r="40" fill="url(#carbon)" />
  <circle cx="768.95" cy="621.84" r="25" fill="url(#hydrogen)" />
  <linearGradient id="bond10" x1="696.76" y1="607.02" x2="696.84" y2="637.02" gradientUnits="userSpaceOnUse">
    <stop offset="0%" stop-color="#454545" />
    <stop offset="25%" stop-color="#606060" />
    <stop offset="50%" stop-color="#454545" />
    <stop offset="100%" stop-color="#252525" />
  </linearGradient>
  <linearGradient id="cap10" x1="696.76" y1="607.02" x2="696.84" y2="637.02" gradientUnits="userSpaceOnUse" gradientTransform="rotate(90.14,749.04,621.89)">
    <stop offset="0%" stop-color="#454545" />
    <stop offset="25%" stop-color="#606060" />
    <stop offset="50%" stop-color="#454545" />
    <stop offset="100%" stop-color="#252525" />
  </linearGradient>
  <polygon points="696.84,637.02 696.76,607.02 749,606.89 749.08,636.89" fill="url(#bond10)" />
  <ellipse cx="749.04" cy="621.89" rx="15" ry="1.44" transform="rotate(-90.14,749.04,621.89)" fill="url(#cap10)" />
  <circle cx="757.14" cy="360.89" r="25" fill="url(#hydrogen)" />
  <circle cx="659.89" cy="622.11" r="40" fill="url(#carbon)" />
  <linearGradient id="bond13" x1="683.63" y1="353.45" x2="686.73" y2="383.29" gradientUnits="userSpaceOnUse">
    <stop offset="0%" stop-color="#454545" />
    <stop offset="25%" stop-color="#606060" />
    <stop offset="50%" stop-color="#454545" />
    <stop offset="100%" stop-color="#252525" />
  </linearGradient>
  <linearGradient id="cap13" x1="683.63" y1="353.45" x2="686.73" y2="383.29" gradientUnits="userSpaceOnUse" gradientTransform="rotate(95.93,737.29,362.95)">
    <stop offset="0%" stop-color="#454545" />
    <stop offset="25%" stop-color="#606060" />
    <stop offset="50%" stop-color="#454545" />
    <stop offset="100%" stop-color="#252525" />
  </linearGradient>
  <polygon points="686.73,383.29 683.63,353.45 735.74,348.03 738.84,377.87" fill="url(#bond13)" />
  <ellipse cx="737.29" cy="362.95" rx="15" ry="1" transform="rotate(-95.93,737.29,362.95)" fill="url(#cap13)" />
  <circle cx="648.38" cy="372.19" r="40" fill="url(#carbon)" />
  <linearGradient id="bond15" x1="273.82" y1="486.67" x2="275.2" y2="516.63" gradientUnits="userSpaceOnUse">
    <stop offset="0%" stop-color="#454545" />
    <stop offset="25%" stop-color="#606060" />
    <stop offset="50%" stop-color="#454545" />
    <stop offset="100%" stop-color="#252525" />
  </linearGradient>
  <linearGradient id="cap15" x1="273.82" y1="486.67" x2="275.2" y2="516.63" gradientUnits="userSpaceOnUse" gradientTransform="rotate(92.63,339.68,498.66)">
    <stop offset="0%" stop-color="#454545" />
    <stop offset="25%" stop-color="#606060" />
    <stop offset="50%" stop-color="#454545" />
    <stop offset="100%" stop-color="#252525" />
  </linearGradient>
  <polygon points="275.2,516.63 273.82,486.67 338.99,483.68 340.37,513.64" fill="url(#bond15)" />
  <ellipse cx="339.68" cy="498.66" rx="15" ry="4.28" transform="rotate(-92.63,339.68,498.66)" fill="url(#cap15)" />
  <linearGradient id="bond16" x1="635.94" y1="649.28" x2="664.63" y2="658.02" gradientUnits="userSpaceOnUse">
    <stop offset="0%" stop-color="#454545" />
    <stop offset="25%" stop-color="#606060" />
    <stop offset="50%" stop-color="#454545" />
    <stop offset="100%" stop-color="#252525" />
  </linearGradient>
  <linearGradient id="cap16" x1="635.94" y1="649.28" x2="664.63" y2="658.02" gradientUnits="userSpaceOnUse" gradientTransform="rotate(-16.94,650.29,653.65)">
    <stop offset="0%" stop-color="#454545" />
    <stop offset="25%" stop-color="#606060" />
    <stop offset="50%" stop-color="#454545" />
    <stop offset="100%" stop-color="#252525" />
  </linearGradient>
  <polygon points="635.94,649.28 664.63,658.02 651.06,702.59 622.36,693.85" fill="url(#bond16)" />
  <ellipse cx="650.29" cy="653.65" rx="15" ry="6.87" transform="rotate(16.94,650.29,653.65)" fill="url(#cap16)" />
  <circle cx="239.01" cy="503.28" r="40" fill="url(#oxygen)" />
  <linearGradient id="bond18" x1="621.54" y1="348.42" x2="676.46" y2="324.26" gradientUnits="userSpaceOnUse">
    <stop offset="0%" stop-color="#252525" />
    <stop offset="25%" stop-color="#404040" />
    <stop offset="50%" stop-color="#252525" />
    <stop offset="100%" stop-color="#050505" />
  </linearGradient>
  <linearGradient id="cap18" x1="621.54" y1="348.42" x2="676.46" y2="324.26" gradientUnits="userSpaceOnUse" gradientTransform="rotate(-156.25,635.27,342.38)">
    <stop offset="0%" stop-color="#252525" />
    <stop offset="25%" stop-color="#404040" />
    <stop offset="50%" stop-color="#252525" />
    <stop offset="100%" stop-color="#050505" />
  </linearGradient>
  <polygon points="649,336.34 621.54,348.42 602.99,306.27 630.45,294.19" fill="url(#bond18)" />
  <ellipse cx="635.27" cy="342.38" rx="15" ry="7.17" transform="rotate(156.25,635.27,342.38)" fill="url(#cap18)" />
  <linearGradient id="bond19" x1="611.12" y1="535.53" x2="667.24" y2="514.31" gradientUnits="userSpaceOnUse">
    <stop offset="0%" stop-color="#252525" />
    <stop offset="25%" stop-color="#404040" />
    <stop offset="50%" stop-color="#252525" />
    <stop offset="100%" stop-color="#050505" />
  </linearGradient>
  <linearGradient id="cap19" x1="611.12" y1="535.53" x2="667.24" y2="514.31" gradientUnits="userSpaceOnUse" gradientTransform="rotate(20.71,648.77,592.69)">
    <stop offset="0%" stop-color="#252525" />
    <stop offset="25%" stop-color="#404040" />
    <stop offset="50%" stop-color="#252525" />
    <stop offset="100%" stop-color="#050505" />
  </linearGradient>
  <polygon points="611.12,535.53 639.18,524.92 662.8,587.39 634.74,598" fill="url(#bond19)" />
  <ellipse cx="648.77" cy="592.69" rx="15" ry="7.95" transform="rotate(-20.71,648.77,592.69)" fill="url(#cap19)" />
  <linearGradient id="bond20" x1="607.86" y1="465.78" x2="636.84" y2="473.52" gradientUnits="userSpaceOnUse">
    <stop offset="0%" stop-color="#454545" />
    <stop offset="25%" stop-color="#606060" />
    <stop offset="50%" stop-color="#454545" />
    <stop offset="100%" stop-color="#252525" />
  </linearGradient>
  <linearGradient id="cap20" x1="607.86" y1="465.78" x2="636.84" y2="473.52" gradientUnits="userSpaceOnUse" gradientTransform="rotate(165.05,640.06,403.35)">
    <stop offset="0%" stop-color="#454545" />
    <stop offset="25%" stop-color="#606060" />
    <stop offset="50%" stop-color="#454545" />
    <stop offset="100%" stop-color="#252525" />
  </linearGradient>
  <polygon points="636.84,473.52 607.86,465.78 625.57,399.48 654.55,407.22" fill="url(#bond20)" />
  <ellipse cx="640.06" cy="403.35" rx="15" ry="7.4" transform="rotate(-165.05,640.06,403.35)" fill="url(#cap20)" />
  <linearGradient id="bond21" x1="440.73" y1="517.68" x2="445.84" y2="457.9" gradientUnits="userSpaceOnUse">
    <stop offset="0%" stop-color="#252525" />
    <stop offset="25%" stop-color="#404040" />
    <stop offset="50%" stop-color="#252525" />
    <stop offset="100%" stop-color="#050505" />
  </linearGradient>
  <linearGradient id="cap21" x1="440.73" y1="517.68" x2="445.84" y2="457.9" gradientUnits="userSpaceOnUse" gradientTransform="rotate(-94.88,396.67,498.87)">
    <stop offset="0%" stop-color="#252525" />
    <stop offset="25%" stop-color="#404040" />
    <stop offset="50%" stop-color="#252525" />
    <stop offset="100%" stop-color="#050505" />
  </linearGradient>
  <polygon points="443.29,487.79 440.73,517.68 395.39,513.81 397.95,483.92" fill="url(#bond21)" />
  <ellipse cx="396.67" cy="498.87" rx="15" ry="12.2" transform="rotate(94.88,396.67,498.87)" fill="url(#cap21)" />
  <circle cx="631.53" cy="715.23" r="25" fill="url(#hydrogen)" />
  <linearGradient id="bond23" x1="219.05" y1="533.5" x2="248.68" y2="538.18" gradientUnits="userSpaceOnUse">
    <stop offset="0%" stop-color="#454545" />
    <stop offset="25%" stop-color="#606060" />
    <stop offset="50%" stop-color="#454545" />
    <stop offset="100%" stop-color="#252525" />
  </linearGradient>
  <linearGradient id="cap23" x1="219.05" y1="533.5" x2="248.68" y2="538.18" gradientUnits="userSpaceOnUse" gradientTransform="rotate(-8.98,233.87,535.84)">
    <stop offset="0%" stop-color="#454545" />
    <stop offset="25%" stop-color="#606060" />
    <stop offset="50%" stop-color="#454545" />
    <stop offset="100%" stop-color="#252525" />
  </linearGradient>
  <polygon points="219.05,533.5 248.68,538.18 243.11,573.46 213.48,568.78" fill="url(#bond23)" />
  <ellipse cx="233.87" cy="535.84" rx="15" ry="6.87" transform="rotate(8.98,233.87,535.84)" fill="url(#cap23)" />
  <circle cx="609.65" cy="284.15" r="25" fill="url(#hydrogen)" />
  <circle cx="225.52" cy="588.68" r="25" fill="url(#hydrogen)" />
  <circle cx="614.03" cy="500.81" r="40" fill="url(#carbon)" />
  <linearGradient id="bond27" x1="577.34" y1="486.72" x2="578.09" y2="516.71" gradientUnits="userSpaceOnUse">
    <stop offset="0%" stop-color="#454545" />
    <stop offset="25%" stop-color="#606060" />
    <stop offset="50%" stop-color="#454545" />
    <stop offset="100%" stop-color="#252525" />
  </linearGradient>
  <linearGradient id="cap27" x1="577.34" y1="486.72" x2="578.09" y2="516.71" gradientUnits="userSpaceOnUse" gradientTransform="rotate(-88.57,577.72,501.72)">
    <stop offset="0%" stop-color="#454545" />
    <stop offset="25%" stop-color="#606060" />
    <stop offset="50%" stop-color="#454545" />
    <stop offset="100%" stop-color="#252525" />
  </linearGradient>
  <polygon points="577.34,486.72 578.09,516.71 500.19,518.66 499.44,488.67" fill="url(#bond27)" />
  <ellipse cx="577.72" cy="501.72" rx="15" ry="3.02" transform="rotate(88.57,577.72,501.72)" fill="url(#cap27)" />
  <circle cx="463.5" cy="504.57" r="40" fill="url(#carbon)" />
  <linearGradient id="bond29" x1="632.25" y1="485.78" x2="632.3" y2="515.78" gradientUnits="userSpaceOnUse">
    <stop offset="0%" stop-color="#454545" />
    <stop offset="25%" stop-color="#606060" />
    <stop offset="50%" stop-color="#454545" />
    <stop offset="100%" stop-color="#252525" />
  </linearGradient>
  <linearGradient id="cap29" x1="632.25" y1="485.78" x2="632.3" y2="515.78" gradientUnits="userSpaceOnUse" gradientTransform="rotate(90.11,632.28,500.78)">
    <stop offset="0%" stop-color="#454545" />
    <stop offset="25%" stop-color="#606060" />
    <stop offset="50%" stop-color="#454545" />
    <stop offset="100%" stop-color="#252525" />
  </linearGradient>
  <polygon points="632.3,515.78 632.25,485.78 658.15,485.73 658.21,515.73" fill="url(#bond29)" />
  <ellipse cx="632.28" cy="500.78" rx="15" ry="13.06" transform="rotate(-90.11,632.28,500.78)" fill="url(#cap29)" />
  <linearGradient id="bond30" x1="441.01" y1="531.7" x2="470.06" y2="539.19" gradientUnits="userSpaceOnUse">
    <stop offset="0%" stop-color="#454545" />
    <stop offset="25%" stop-color="#606060" />
    <stop offset="50%" stop-color="#454545" />
    <stop offset="100%" stop-color="#252525" />
  </linearGradient>
  <linearGradient id="cap30" x1="441.01" y1="531.7" x2="470.06" y2="539.19" gradientUnits="userSpaceOnUse" gradientTransform="rotate(-14.46,455.54,535.45)">
    <stop offset="0%" stop-color="#454545" />
    <stop offset="25%" stop-color="#606060" />
    <stop offset="50%" stop-color="#454545" />
    <stop offset="100%" stop-color="#252525" />
  </linearGradient>
  <polygon points="441.01,531.7 470.06,539.19 458.75,583.07 429.7,575.58" fill="url(#bond30)" />
  <ellipse cx="455.54" cy="535.45" rx="15" ry="7.66" transform="rotate(14.46,455.54,535.45)" fill="url(#cap30)" />
  <linearGradient id="bond31" x1="440.41" y1="481.16" x2="497.64" y2="463.15" gradientUnits="userSpaceOnUse">
    <stop offset="0%" stop-color="#252525" />
    <stop offset="25%" stop-color="#404040" />
    <stop offset="50%" stop-color="#252525" />
    <stop offset="100%" stop-color="#050505" />
  </linearGradient>
  <linearGradient id="cap31" x1="440.41" y1="481.16" x2="497.64" y2="463.15" gradientUnits="userSpaceOnUse" gradientTransform="rotate(-162.54,454.72,476.66)">
    <stop offset="0%" stop-color="#252525" />
    <stop offset="25%" stop-color="#404040" />
    <stop offset="50%" stop-color="#252525" />
    <stop offset="100%" stop-color="#050505" />
  </linearGradient>
  <polygon points="469.03,472.16 440.41,481.16 427.93,441.49 456.55,432.48" fill="url(#bond31)" />
  <ellipse cx="454.72" cy="476.66" rx="15" ry="9.21" transform="rotate(162.54,454.72,476.66)" fill="url(#cap31)" />
  <circle cx="439.93" cy="595.98" r="25" fill="url(#hydrogen)" />
  <circle cx="668.02" cy="500.71" r="25" fill="url(#hydrogen)" />
  <circle cx="437.5" cy="421.93" r="25" fill="url(#hydrogen)" />
</svg>